<svg id="Component_2_1" data-name="Component 2 – 1" xmlns="http://www.w3.org/2000/svg" width="19.726" height="15.025" viewBox="0 0 19.726 15.025">
  <path id="Path_45054" data-name="Path 45054" d="M42.722,61H26.464a1.714,1.714,0,0,0-.743.174l8.833,8.833,1.98-1.9h0l6.93-6.93A1.714,1.714,0,0,0,42.722,61Z" transform="translate(-24.73 -61)" fill="#fff"/>
  <path id="Path_45055" data-name="Path 45055" d="M344.735,86.728l-6.522,6.522,6.522,6.522a1.713,1.713,0,0,0,.174-.743V87.47A1.713,1.713,0,0,0,344.735,86.728Z" transform="translate(-325.183 -85.737)" fill="#fff"/>
  <path id="Path_45056" data-name="Path 45056" d="M.174,86.721A1.714,1.714,0,0,0,0,87.464V99.022a1.714,1.714,0,0,0,.174.743L6.7,93.243Z" transform="translate(0 -85.73)" fill="#fff"/>
  <path id="Path_45057" data-name="Path 45057" d="M36.936,277.211l-1.98,1.9a.578.578,0,0,1-.817,0l-1.9-1.9-6.522,6.522a1.713,1.713,0,0,0,.743.174H42.715a1.714,1.714,0,0,0,.743-.174Z" transform="translate(-24.723 -268.881)" fill="#fff"/>
</svg>
