<svg xmlns="http://www.w3.org/2000/svg" width="12.805" height="15.169" viewBox="0 0 12.805 15.169">
  <g id="youtube_1_" data-name="youtube (1)" transform="translate(-7.067)">
    <g id="Group_3119" data-name="Group 3119" transform="translate(7.067)">
      <path id="Path_45040" data-name="Path 45040" d="M19.65,38.761A1.618,1.618,0,0,0,18.266,37.5a43.021,43.021,0,0,0-4.794-.177,43.035,43.035,0,0,0-4.8.177,1.617,1.617,0,0,0-1.383,1.258,13.71,13.71,0,0,0-.226,3.027,13.708,13.708,0,0,0,.223,3.027,1.617,1.617,0,0,0,1.384,1.258,43.023,43.023,0,0,0,4.795.177,42.993,42.993,0,0,0,4.8-.177,1.618,1.618,0,0,0,1.384-1.258,13.718,13.718,0,0,0,.224-3.027A13.728,13.728,0,0,0,19.65,38.761Zm-8.931.752H9.793v4.925H8.932V39.513h-.91v-.807h2.7Zm2.338,4.925h-.774v-.466a1.24,1.24,0,0,1-.884.525.475.475,0,0,1-.5-.317,2.18,2.18,0,0,1-.068-.635V40.167h.774v3.144a2.409,2.409,0,0,0,.007.3c.019.12.077.181.181.181.155,0,.318-.12.489-.362V40.167h.774v4.27ZM16,43.156a3.411,3.411,0,0,1-.078.861.613.613,0,0,1-.618.48,1.055,1.055,0,0,1-.8-.472v.414h-.774V38.706H14.5v1.872a1.048,1.048,0,0,1,.8-.463.612.612,0,0,1,.618.482,3.279,3.279,0,0,1,.078.859Zm2.92-.712H17.37V43.2c0,.4.129.593.4.593a.333.333,0,0,0,.346-.31,4.869,4.869,0,0,0,.017-.524h.789v.113c0,.249-.01.421-.017.5a1.1,1.1,0,0,1-.181.464,1.071,1.071,0,0,1-.936.463,1.108,1.108,0,0,1-.937-.437,1.654,1.654,0,0,1-.248-1v-1.5a1.662,1.662,0,0,1,.239-1.006,1.1,1.1,0,0,1,.927-.438,1.075,1.075,0,0,1,.913.438,1.678,1.678,0,0,1,.24,1.006v.884Z" transform="translate(-7.067 -31.081)" fill="#083d77"/>
      <path id="Path_45041" data-name="Path 45041" d="M69.045,58.163q-.388,0-.388.592v.4h.774v-.4C69.431,58.361,69.3,58.163,69.045,58.163Z" transform="translate(-58.354 -48.433)" fill="#083d77"/>
      <path id="Path_45042" data-name="Path 45042" d="M51.891,58.163a.554.554,0,0,0-.386.188v2.6a.552.552,0,0,0,.386.191c.223,0,.337-.191.337-.576V58.746C52.228,58.361,52.114,58.163,51.891,58.163Z" transform="translate(-44.071 -48.433)" fill="#083d77"/>
      <path id="Path_45043" data-name="Path 45043" d="M53.543,13.2a1.256,1.256,0,0,0,.893-.53v.471h.782V8.82h-.782v3.3c-.173.245-.338.366-.494.366-.1,0-.166-.062-.183-.183a1.815,1.815,0,0,1-.01-.3V8.82h-.78v3.413a2.18,2.18,0,0,0,.069.642A.48.48,0,0,0,53.543,13.2Z" transform="translate(-45.291 -7.345)" fill="#083d77"/>
      <path id="Path_45044" data-name="Path 45044" d="M18.443,3.446V5.791h.867V3.446L20.354,0h-.877l-.592,2.274L18.27,0h-.913c.183.537.373,1.076.556,1.614A14.265,14.265,0,0,1,18.443,3.446Z" transform="translate(-15.636)" fill="#083d77"/>
      <path id="Path_45045" data-name="Path 45045" d="M36.468,12.935a1.066,1.066,0,0,0,.912-.442,1.688,1.688,0,0,0,.243-1.015V9.967a1.691,1.691,0,0,0-.243-1.017,1.16,1.16,0,0,0-1.823,0,1.677,1.677,0,0,0-.245,1.017v1.511a1.673,1.673,0,0,0,.245,1.015A1.066,1.066,0,0,0,36.468,12.935ZM36.1,9.81c0-.4.121-.6.373-.6s.373.2.373.6v1.815c0,.4-.121.6-.373.6s-.373-.2-.373-.6Z" transform="translate(-30.588 -7.085)" fill="#083d77"/>
    </g>
  </g>
</svg>
